<svg width="29" height="15" viewBox="0 0 29 15" fill="none" xmlns="http://www.w3.org/2000/svg">
<g id="Lexus" clip-path="url(#clip0_715_2292)">
<g id="Group">
<path id="Vector" fill-rule="evenodd" clip-rule="evenodd" d="M0 -6.5625H29V20.625H0V-6.5625Z" fill="white"/>
<path id="Vector_2" fill-rule="evenodd" clip-rule="evenodd" d="M14.7511 1.41252C14.2123 2.03538 12.6756 4.04627 12.5005 4.30664C12.1634 4.80552 12.1336 5.04728 12.1237 5.20835C12.1139 5.36646 12.1139 5.65152 12.3881 5.88396C12.8476 6.26817 13.492 6.20611 14.0638 6.20611H18.7737C18.9753 6.20611 19.0348 6.15026 19.1439 6.01401C19.5206 5.47479 19.6893 4.88916 19.6893 4.36546C19.6893 3.24372 18.9127 1.83086 16.946 1.19248L16.7244 1.48995C18.2844 2.1839 18.9291 3.09181 18.9291 4.36222C18.939 4.70312 18.843 5.07182 18.605 5.41273H14.024C13.7497 5.41273 13.71 5.12147 13.8091 4.95715C14.2019 4.30188 14.6402 3.67155 15.1212 3.07023C15.584 2.49081 16.04 1.94849 16.5193 1.38149C16.6483 1.22351 16.5622 1.07161 16.3045 1.0221C15.769 0.916738 15.2106 0.842407 14.5329 0.842407C10.7752 0.842407 9.40007 2.86571 9.40007 4.36546C9.40007 5.99229 10.785 7.87934 14.5429 7.87934C16.6284 7.87934 17.9936 7.25014 18.7834 6.44152H17.9868C17.2959 7.03955 16.1094 7.46424 14.5429 7.46424C11.36 7.46424 10.1868 5.78777 10.1868 4.34374C10.2098 3.05472 11.469 1.27612 14.6223 1.21731C14.7413 1.21421 14.834 1.31646 14.7511 1.41252ZM26.0548 10.6989C26.2432 10.7237 26.3886 10.863 26.3886 11.0275C26.3886 11.2131 26.2102 11.3619 25.9919 11.3619H21.9533V8.88613H20.7632V11.3683H18.5752C17.9837 11.3683 17.8615 11.0305 17.8615 10.7206V8.87076H15.8883C15.6932 8.99474 15.5048 9.13113 15.3032 9.24566L14.1332 9.92113L12.6129 8.88007H10.2463V9.50293H11.1023V9.16188L13.1151 10.5162L11.7402 11.3247H10.2462V11.9475H11.9747C12.1598 11.8299 12.335 11.7059 12.5267 11.5975L13.7297 10.9127L15.2566 11.9353H16.9953L14.698 10.3146L15.8781 9.59291C16.1294 9.43776 16.3939 9.30786 16.6516 9.1654V10.7952C16.6516 11.4831 16.8399 11.9602 18.3173 11.9602L26.6629 11.9418C27.3073 11.9508 27.7204 11.5327 27.7204 11.0278C27.7204 10.5255 27.2444 10.1135 26.6629 10.1135H23.6487C23.6884 9.76964 24.0054 9.48163 24.326 9.48163H27.3766L27.367 8.88359H24.1312C23.1064 8.88359 22.2869 9.67994 22.2638 10.6065C22.2606 10.6715 22.3067 10.7117 22.3828 10.7117L26.0548 10.6989ZM10.2463 10.6897V10.0544H10.8346V10.6897H10.2463ZM10.2463 8.88007H8.01202C7.40722 8.88007 6.94113 9.02887 6.5975 9.28275C5.97945 9.74144 5.78116 10.2247 5.78778 10.4417H6.59419C6.24048 10.6897 6.00247 10.9869 5.877 11.331H3.2327C2.75683 11.331 2.44931 11.0151 2.44931 10.7082V8.85835H1.27942V10.7795C1.27942 11.4704 1.98021 11.9475 3.10377 11.9475H10.2463V11.3247H7.41053C7.42377 11.0087 7.78394 10.6897 8.11117 10.6897H10.2463V10.0544H7.37743C7.33786 9.86852 7.70797 9.50293 7.99216 9.50293H10.2463V8.88007Z" fill="black"/>
</g>
</g>
<defs>
<clipPath id="clip0_715_2292">
<rect width="29" height="15" fill="white"/>
</clipPath>
</defs>
</svg>
